<svg width="327" height="153" viewBox="0 0 327 153" fill="none" xmlns="http://www.w3.org/2000/svg">
<path d="M241.11 104.214H99.669C95.9925 104.214 92.9988 101.236 92.9988 97.5758V8.41006C92.9988 4.74942 95.9905 1.77222 99.669 1.77222H241.11C244.788 1.77222 247.78 4.74942 247.78 8.41006V97.5758C247.78 101.236 244.788 104.214 241.11 104.214ZM99.669 4.13216C97.2995 4.13216 95.3722 6.05206 95.3722 8.41006V97.5758C95.3722 99.9338 97.2995 101.854 99.669 101.854H241.11C243.479 101.854 245.409 99.9338 245.409 97.5758V8.41006C245.409 6.05206 243.479 4.13216 241.11 4.13216H99.669Z" fill="#333333"/>
<path d="M246.594 25.2848H94.1864C93.5309 25.2848 93.0006 24.7569 93.0006 24.1043C93.0006 23.4518 93.5309 22.9238 94.1864 22.9238H246.594C247.25 22.9238 247.78 23.4518 247.78 24.1043C247.78 24.7569 247.25 25.2848 246.594 25.2848Z" fill="#333333"/>
<path d="M232.598 54.1714H174.018C173.362 54.1714 172.832 53.6438 172.832 52.9915V36.9995C172.832 36.3472 173.362 35.8196 174.018 35.8196H232.596C233.252 35.8196 233.782 36.3472 233.782 36.9995V52.9915C233.784 53.6438 233.254 54.1714 232.598 54.1714ZM175.206 51.8115H231.412V38.1795H175.206V51.8115Z" fill="#333333"/>
<path d="M232.598 80.7406H174.018C173.362 80.7406 172.832 80.2129 172.832 79.5606V62.7937C172.832 62.1414 173.362 61.6138 174.018 61.6138H232.596C233.252 61.6138 233.782 62.1414 233.782 62.7937V79.5606C233.784 80.211 233.254 80.7406 232.598 80.7406ZM175.206 78.3787H231.412V63.9737H175.206V78.3787Z" fill="#333333"/>
<path d="M195.071 20.6198C191.477 20.6198 188.552 17.7089 188.552 14.132C188.552 10.555 191.477 7.64404 195.071 7.64404C198.666 7.64404 201.591 10.555 201.591 14.132C201.593 17.7089 198.668 20.6198 195.071 20.6198ZM195.071 10.004C192.784 10.004 190.923 11.8557 190.923 14.132C190.923 16.4082 192.784 18.2599 195.071 18.2599C197.359 18.2599 199.219 16.4082 199.219 14.132C199.219 11.8557 197.361 10.004 195.071 10.004Z" fill="#333333"/>
<path d="M211.64 20.6198C208.046 20.6198 205.121 17.7089 205.121 14.132C205.121 10.555 208.046 7.64404 211.64 7.64404C215.235 7.64404 218.16 10.555 218.16 14.132C218.162 17.7089 215.237 20.6198 211.64 20.6198ZM211.64 10.004C209.353 10.004 207.492 11.8557 207.492 14.132C207.492 16.4082 209.353 18.2599 211.64 18.2599C213.928 18.2599 215.789 16.4082 215.789 14.132C215.789 11.8557 213.93 10.004 211.64 10.004Z" fill="#333333"/>
<path d="M228.209 20.6198C224.615 20.6198 221.69 17.7089 221.69 14.132C221.69 10.555 224.615 7.64404 228.209 7.64404C231.804 7.64404 234.729 10.555 234.729 14.132C234.731 17.7089 231.806 20.6198 228.209 20.6198ZM228.209 10.004C225.922 10.004 224.061 11.8557 224.061 14.132C224.061 16.4082 225.922 18.2599 228.209 18.2599C230.497 18.2599 232.358 16.4082 232.358 14.132C232.358 11.8557 230.499 10.004 228.209 10.004Z" fill="#333333"/>
<path d="M52.3836 51.7608H8.10447C3.63547 51.7608 0 48.143 0 43.6957V27.9569C0 23.5096 3.63547 19.8918 8.10447 19.8918H52.3836C56.8526 19.8918 60.488 23.5096 60.488 27.9569V43.6957C60.488 48.143 56.8526 51.7608 52.3836 51.7608ZM8.10447 22.2537C4.94448 22.2537 2.37146 24.8123 2.37146 27.9589V43.6976C2.37146 46.8423 4.94252 49.4028 8.10447 49.4028H52.3836C55.5436 49.4028 58.1166 46.8442 58.1166 43.6976V27.9589C58.1166 24.8142 55.5455 22.2537 52.3836 22.2537H8.10447Z" fill="#333333"/>
<path d="M94.346 48.2461C94.0714 48.7615 93.4524 49.0094 92.8892 48.8032L59.8353 36.7431C59.2201 36.5183 58.9068 35.8389 59.1312 35.2264C59.3654 34.608 60.0403 34.2969 60.6556 34.5216L93.7094 46.5817C94.3229 46.8056 94.638 47.486 94.4136 48.0985C94.393 48.1495 94.3708 48.1995 94.346 48.2461Z" fill="#333333"/>
<path d="M317.955 31.869H285.535C281.066 31.869 277.431 28.2512 277.431 23.8039V8.06509C277.431 3.61781 281.066 0 285.535 0H317.955C322.424 0 326.06 3.61781 326.06 8.06509V23.8039C326.06 28.2512 322.424 31.869 317.955 31.869ZM285.535 2.36189C282.375 2.36189 279.802 4.92045 279.802 8.06704V23.8058C279.802 26.9505 282.374 29.511 285.535 29.511H317.955C321.115 29.511 323.688 26.9524 323.688 23.8058V8.06704C323.688 4.9224 321.117 2.36189 317.955 2.36189H285.535Z" fill="#333333"/>
<path d="M317.955 92.065H285.535C281.066 92.065 277.431 88.4472 277.431 83.9999V68.2611C277.431 63.8139 281.066 60.196 285.535 60.196H317.955C322.424 60.196 326.06 63.8139 326.06 68.2611V83.9999C326.06 88.4453 322.424 92.065 317.955 92.065ZM285.535 62.556C282.375 62.556 279.802 65.1145 279.802 68.2611V83.9999C279.802 87.1446 282.374 89.7051 285.535 89.7051H317.955C321.115 89.7051 323.688 87.1465 323.688 83.9999V68.2611C323.688 65.1165 321.117 62.556 317.955 62.556H285.535Z" fill="#333333"/>
<path d="M263.398 152.26H219.117C214.648 152.26 211.012 148.642 211.012 144.194V128.456C211.012 124.008 214.648 120.391 219.117 120.391H263.398C267.867 120.391 271.502 124.008 271.502 128.456V144.194C271.502 148.642 267.865 152.26 263.398 152.26ZM219.117 122.752C215.957 122.752 213.384 125.311 213.384 128.458V144.196C213.384 147.341 215.955 149.902 219.117 149.902H263.398C266.558 149.902 269.131 147.343 269.131 144.196V128.458C269.131 125.313 266.56 122.752 263.398 122.752H219.117Z" fill="#333333"/>
<path d="M116.326 152.26H83.9082C79.4392 152.26 75.8037 148.642 75.8037 144.194V128.456C75.8037 124.008 79.4392 120.391 83.9082 120.391H116.326C120.795 120.391 124.43 124.008 124.43 128.456V144.194C124.43 148.642 120.795 152.26 116.326 152.26ZM83.9062 122.752C80.7462 122.752 78.1732 125.311 78.1732 128.458V144.196C78.1732 147.341 80.7442 149.902 83.9062 149.902H116.324C119.484 149.902 122.057 147.343 122.057 144.196V128.458C122.057 125.313 119.486 122.752 116.324 122.752H83.9062Z" fill="#333333"/>
<path d="M241.256 122.752C240.994 122.752 240.73 122.667 240.511 122.488L218.569 104.782C218.06 104.371 217.982 103.627 218.395 103.123C218.808 102.619 219.553 102.539 220.062 102.95L242.004 120.655C242.513 121.066 242.591 121.81 242.178 122.314C241.943 122.602 241.601 122.752 241.256 122.752Z" fill="#333333"/>
<path d="M246.596 38.1796C246.177 38.1796 245.772 37.9596 245.555 37.5682C245.238 36.9977 245.448 36.2792 246.023 35.9657L278.047 18.4063C278.623 18.0928 279.341 18.2992 279.658 18.8717C279.975 19.4422 279.765 20.1607 279.19 20.4742L247.166 38.0336C246.984 38.1329 246.788 38.1796 246.596 38.1796Z" fill="#333333"/>
<path d="M278.617 79.8485C278.468 79.8485 278.317 79.8212 278.171 79.7628L246.146 66.7987C245.54 66.5514 245.248 65.8641 245.495 65.2605C245.743 64.6569 246.432 64.3668 247.04 64.6121L279.065 77.5762C279.672 77.8235 279.963 78.5108 279.716 79.1144C279.529 79.5701 279.086 79.8485 278.617 79.8485Z" fill="#333333"/>
<path d="M100.71 121.572C100.379 121.572 100.05 121.436 99.8177 121.169C99.3852 120.679 99.4361 119.933 99.9292 119.504L118.907 102.981C119.4 102.551 120.149 102.601 120.58 103.092C121.012 103.583 120.961 104.328 120.468 104.757L101.491 121.28C101.266 121.477 100.986 121.572 100.71 121.572Z" fill="#333333"/>
<path d="M113.665 83.8499C113.362 83.8499 113.068 83.7331 112.849 83.5267L106.314 77.3523C105.838 76.9025 105.819 76.1567 106.271 75.6836L127.168 53.7801L121.231 48.1723C120.932 47.89 120.803 47.4733 120.887 47.0722C120.973 46.6711 121.261 46.342 121.648 46.2038L150.634 35.8781C151.051 35.7301 151.526 35.8274 151.851 36.1331C152.176 36.4388 152.299 36.9023 152.17 37.3287L143.312 66.6722C143.193 67.0636 142.88 67.3673 142.48 67.4725C142.083 67.5776 141.659 67.4705 141.359 67.1882L135.423 61.5804L114.524 83.4858C114.307 83.7136 114.009 83.846 113.694 83.8538C113.684 83.8499 113.675 83.8499 113.665 83.8499ZM108.806 76.4508L113.622 80.9993L134.519 59.0939C134.736 58.8661 135.033 58.7337 135.348 58.7259C135.664 58.7278 135.969 58.8349 136.196 59.0491L141.594 64.1506L149.223 38.8845L124.262 47.7751L129.661 52.8747C129.889 53.0908 130.021 53.3868 130.03 53.7003C130.038 54.0138 129.921 54.3175 129.706 54.5434L108.806 76.4508Z" fill="#333333"/>
<path d="M221.385 128.471H225.893C229.43 128.471 231.817 129.655 231.817 133.097C231.817 136.404 229.442 137.95 225.989 137.95H223.394V144.182H221.385V128.471ZM225.736 136.326C228.497 136.326 229.814 135.331 229.814 133.095C229.814 130.829 228.413 130.091 225.64 130.091H223.394V136.326H225.736Z" fill="#333333"/>
<path d="M235.013 128.471H237.022V135.051H244.364V128.471H246.371V144.181H244.364V136.795H237.022V144.181H235.013V128.471Z" fill="#333333"/>
<path d="M250.695 128.471H255.203C258.741 128.471 261.128 129.655 261.128 133.098C261.128 136.404 258.753 137.95 255.299 137.95H252.705V144.183H250.695V128.471ZM255.049 136.326C257.809 136.326 259.126 135.331 259.126 133.096C259.126 130.829 257.725 130.091 254.953 130.091H252.707V136.326H255.049Z" fill="#333333"/>
<path d="M292.051 16.845V7.29614H294.131V16.9014C294.131 20.8094 295.79 22.038 297.925 22.038C300.091 22.038 301.801 20.8094 301.801 16.9014V7.29614H303.795V16.845C303.795 22.0633 301.261 23.8586 297.927 23.8586C294.589 23.8586 292.051 22.0633 292.051 16.845Z" fill="#333333"/>
<path d="M308.196 7.29565H310.275V23.5602H308.196V7.29565Z" fill="#333333"/>
<path d="M288.197 76.8918V67.343H290.277V76.9483C290.277 80.8562 291.936 82.0849 294.071 82.0849C296.237 82.0849 297.947 80.8562 297.947 76.9483V67.343H299.941V76.8918C299.941 82.1102 297.407 83.9055 294.073 83.9055C290.738 83.9055 288.197 82.1102 288.197 76.8918Z" fill="#333333"/>
<path d="M306.994 75.2041L302.545 67.3416H304.84L307.069 71.5046C307.482 72.2484 307.83 72.9221 308.34 73.8684H308.44C308.884 72.9221 309.201 72.2484 309.595 71.5046L311.769 67.3416H313.958L309.509 75.3093L314.269 83.608H311.974L309.577 79.2308C309.147 78.4189 308.704 77.6089 308.178 76.6158H308.078C307.605 77.6069 307.192 78.4189 306.781 79.2308L304.421 83.608H302.232L306.994 75.2041Z" fill="#333333"/>
<path d="M10.92 35.1862C10.92 29.9406 14.0272 26.7415 18.1734 26.7415C20.1574 26.7415 21.711 27.7014 22.6678 28.747L21.529 30.0964C20.6701 29.1832 19.588 28.562 18.2105 28.562C15.121 28.562 13.0685 31.0797 13.0685 35.1317C13.0685 39.2207 15.029 41.7832 18.1284 41.7832C19.6878 41.7832 20.8736 41.1075 21.9165 39.9567L23.0552 41.2555C21.7638 42.749 20.1633 43.6037 18.0403 43.6037C13.9705 43.6018 10.92 40.4688 10.92 35.1862Z" fill="#333333"/>
<path d="M29.2226 35.893H24.7008V34.3606H29.2226V29.5239H30.8623V34.3606H35.3841V35.893H30.8623V40.7297H29.2226V35.893Z" fill="#333333"/>
<path d="M41.6024 35.893H37.0806V34.3606H41.6024V29.5239H43.2421V34.3606H47.7639V35.893H43.2421V40.7297H41.6024V35.893Z" fill="#333333"/>
<path d="M102.565 125.544H104.046L97.3973 147.105H95.9161L102.565 125.544Z" fill="#333333"/>
<path d="M105.236 141.493L112.46 138.219L117.022 136.122V135.955L112.46 133.858L105.236 130.585V127.563L119.901 134.662V137.415L105.236 144.515V141.493Z" fill="#333333"/>
<path d="M94.9945 144.513L80.3293 137.413V134.66L94.9945 127.561V130.583L87.7705 133.856L83.2076 135.953V136.12L87.7705 138.218L94.9945 141.491V144.513Z" fill="#333333"/>
<path d="M100.115 94.4252C99.7865 94.4252 99.5223 94.1604 99.5223 93.8352V8.85388C99.5223 8.52676 99.7884 8.26392 100.115 8.26392C100.444 8.26392 100.708 8.52871 100.708 8.85388V93.8352C100.708 94.1604 100.444 94.4252 100.115 94.4252Z" fill="#333333"/>
<path d="M103.674 93.2445C103.346 93.2445 103.081 92.9797 103.081 92.6546V51.3439C103.081 51.0168 103.348 50.7539 103.674 50.7539C104.003 50.7539 104.267 51.0187 104.267 51.3439V92.6546C104.267 92.9797 104.001 93.2445 103.674 93.2445Z" fill="#333333"/>
<path d="M241.256 97.9657H168.907C168.578 97.9657 168.314 97.7007 168.314 97.3754C168.314 97.0501 168.58 96.7852 168.907 96.7852H241.256C241.585 96.7852 241.849 97.0501 241.849 97.3754C241.849 97.7007 241.585 97.9657 241.256 97.9657Z" fill="#333333"/>
</svg>
